<mxfile host="65bd71144e">
    <diagram id="ZLDFT9muCYAuxVmqdyFx" name="MVP Process Map">
        <mxGraphModel dx="1327" dy="782" grid="1" gridSize="10" guides="1" tooltips="1" connect="1" arrows="1" fold="1" page="1" pageScale="1" pageWidth="850" pageHeight="1100" math="0" shadow="0">
            <root>
                <mxCell id="0"/>
                <mxCell id="1" parent="0"/>
                <mxCell id="3" style="edgeStyle=orthogonalEdgeStyle;rounded=0;orthogonalLoop=1;jettySize=auto;html=1;exitX=0.5;exitY=1;exitDx=0;exitDy=0;entryX=0;entryY=0.5;entryDx=0;entryDy=0;" parent="1" source="4" target="7" edge="1">
                    <mxGeometry relative="1" as="geometry"/>
                </mxCell>
                <mxCell id="4" value="&lt;div&gt;&lt;span&gt;GET &quot;/&quot;&lt;/span&gt;&lt;/div&gt;&lt;div&gt;&lt;span&gt;Home Page&lt;/span&gt;&lt;/div&gt;&lt;div style=&quot;font-weight: bold&quot;&gt;&lt;b&gt;index.ejs&lt;/b&gt;&lt;/div&gt;&lt;div style=&quot;font-weight: bold&quot;&gt;&lt;b&gt;&lt;br&gt;&lt;/b&gt;&lt;/div&gt;&lt;div&gt;%&amp;gt; &quot;user/login&quot;&lt;/div&gt;&lt;div&gt;OR&lt;/div&gt;&lt;div&gt;%&amp;gt; &quot;/signup&quot;&lt;/div&gt;" style="rounded=0;whiteSpace=wrap;html=1;align=left;" parent="1" vertex="1">
                    <mxGeometry x="260" y="660.01" width="120" height="160" as="geometry"/>
                </mxCell>
                <mxCell id="153" style="edgeStyle=none;html=1;exitX=1;exitY=0.5;exitDx=0;exitDy=0;entryX=0;entryY=0.5;entryDx=0;entryDy=0;" parent="1" source="5" target="11" edge="1">
                    <mxGeometry relative="1" as="geometry"/>
                </mxCell>
                <mxCell id="5" value="&lt;div&gt;&lt;span&gt;GET &quot;user/login&quot;&lt;/span&gt;&lt;/div&gt;&lt;div&gt;&lt;span&gt;Log-in Page&lt;/span&gt;&lt;/div&gt;&lt;b&gt;&lt;div&gt;&lt;b&gt;login.ejs&lt;/b&gt;&lt;/div&gt;&lt;div&gt;&lt;b&gt;&lt;br&gt;&lt;/b&gt;&lt;/div&gt;&lt;/b&gt;&lt;div&gt;-&amp;gt; POST &quot;users/login&quot;&amp;nbsp; }&amp;gt; profile.ejs&lt;br&gt;&lt;/div&gt;&lt;div&gt;OR&lt;/div&gt;&lt;div&gt;&lt;div&gt;-&amp;gt; POST &quot;users/login&quot;&amp;nbsp; =&amp;gt; user/login&lt;br&gt;&lt;/div&gt;&lt;/div&gt;&lt;div&gt;&lt;br&gt;&lt;/div&gt;" style="rounded=0;whiteSpace=wrap;html=1;align=left;" parent="1" vertex="1">
                    <mxGeometry x="420" y="678.13" width="270" height="123.75" as="geometry"/>
                </mxCell>
                <mxCell id="154" style="edgeStyle=none;html=1;exitX=1;exitY=0.5;exitDx=0;exitDy=0;entryX=0.25;entryY=1;entryDx=0;entryDy=0;" parent="1" source="7" target="11" edge="1">
                    <mxGeometry relative="1" as="geometry">
                        <Array as="points">
                            <mxPoint x="893" y="925"/>
                        </Array>
                    </mxGeometry>
                </mxCell>
                <mxCell id="7" value="&lt;div&gt;&lt;span&gt;GET &quot;/signup&quot;&lt;/span&gt;&lt;/div&gt;&lt;div&gt;&lt;span&gt;Sign-up Page&lt;/span&gt;&lt;/div&gt;&lt;div style=&quot;font-weight: bold&quot;&gt;&lt;b&gt;signup.ejs&lt;/b&gt;&lt;/div&gt;&lt;div style=&quot;font-weight: bold&quot;&gt;&lt;b&gt;&lt;br&gt;&lt;/b&gt;&lt;/div&gt;&lt;div&gt;-&amp;gt; POST &quot;users/singup&quot;&amp;nbsp; }&amp;gt; profile.ejs&lt;/div&gt;" style="rounded=0;whiteSpace=wrap;html=1;align=left;" parent="1" vertex="1">
                    <mxGeometry x="440" y="860" width="230" height="130" as="geometry"/>
                </mxCell>
                <mxCell id="8" style="edgeStyle=orthogonalEdgeStyle;rounded=0;orthogonalLoop=1;jettySize=auto;html=1;exitX=0.75;exitY=0;exitDx=0;exitDy=0;entryX=0;entryY=0.5;entryDx=0;entryDy=0;" parent="1" source="11" target="15" edge="1">
                    <mxGeometry relative="1" as="geometry"/>
                </mxCell>
                <mxCell id="10" style="edgeStyle=orthogonalEdgeStyle;rounded=0;orthogonalLoop=1;jettySize=auto;html=1;exitX=0.75;exitY=1;exitDx=0;exitDy=0;entryX=0;entryY=0.5;entryDx=0;entryDy=0;" parent="1" source="11" target="19" edge="1">
                    <mxGeometry relative="1" as="geometry"/>
                </mxCell>
                <mxCell id="152" style="edgeStyle=none;html=1;exitX=0.5;exitY=0;exitDx=0;exitDy=0;entryX=0.5;entryY=1;entryDx=0;entryDy=0;" parent="1" source="11" target="144" edge="1">
                    <mxGeometry relative="1" as="geometry"/>
                </mxCell>
                <mxCell id="11" value="GET &quot;/profile&quot;&lt;br&gt;Profile Page&lt;br&gt;&lt;b&gt;profile.ejs&lt;br&gt;&lt;/b&gt;&lt;br&gt;&lt;div&gt;&lt;span&gt;%&amp;gt; GET &quot;/search/recipes&quot;&lt;/span&gt;&lt;/div&gt;&lt;div&gt;&lt;span&gt;%&amp;gt; GET &quot;/recipes/saved&quot;&lt;/span&gt;&lt;/div&gt;&lt;div&gt;%&amp;gt; GET &quot;/logout&quot;&lt;span&gt;&lt;br&gt;&lt;/span&gt;&lt;/div&gt;" style="rounded=0;whiteSpace=wrap;html=1;align=left;" parent="1" vertex="1">
                    <mxGeometry x="840" y="675.01" width="210" height="130" as="geometry"/>
                </mxCell>
                <mxCell id="12" value="" style="endArrow=classic;html=1;rounded=0;entryX=0;entryY=0.5;entryDx=0;entryDy=0;exitX=1;exitY=0.5;exitDx=0;exitDy=0;" parent="1" source="4" target="5" edge="1">
                    <mxGeometry width="50" height="50" relative="1" as="geometry">
                        <mxPoint x="570" y="740" as="sourcePoint"/>
                        <mxPoint x="620" y="690" as="targetPoint"/>
                    </mxGeometry>
                </mxCell>
                <mxCell id="143" style="edgeStyle=none;html=1;exitX=0.75;exitY=1;exitDx=0;exitDy=0;entryX=0.75;entryY=0;entryDx=0;entryDy=0;" parent="1" source="15" target="115" edge="1">
                    <mxGeometry relative="1" as="geometry"/>
                </mxCell>
                <mxCell id="15" value="GET &quot;/search/recipes&quot;&lt;br&gt;Search Recipes - Based on Name, Cuisine, Difficulty? (API)&lt;br&gt;&lt;b&gt;searchByRecipe.ejs&lt;br&gt;&lt;br&gt;&lt;div&gt;&lt;span style=&quot;font-weight: normal&quot;&gt;-&amp;gt; GET &quot;recipies/view&quot;&lt;/span&gt;&lt;/div&gt;&lt;div&gt;&lt;span style=&quot;font-weight: 400&quot;&gt;%&amp;gt; GET &quot;/logout&quot;&lt;/span&gt;&lt;span style=&quot;font-weight: normal&quot;&gt;&lt;br&gt;&lt;/span&gt;&lt;/div&gt;&lt;/b&gt;" style="rounded=0;whiteSpace=wrap;html=1;align=left;" parent="1" vertex="1">
                    <mxGeometry x="1120" y="520" width="240" height="120" as="geometry"/>
                </mxCell>
                <mxCell id="142" style="edgeStyle=none;html=1;exitX=0.75;exitY=0;exitDx=0;exitDy=0;entryX=0.75;entryY=1;entryDx=0;entryDy=0;" parent="1" source="19" target="115" edge="1">
                    <mxGeometry relative="1" as="geometry"/>
                </mxCell>
                <mxCell id="19" value="&lt;div&gt;&lt;span&gt;GET &quot;/recipes/saved&lt;/span&gt;&lt;/div&gt;&lt;div&gt;&lt;span&gt;View Saved Recipes&lt;/span&gt;&lt;/div&gt;&lt;div style=&quot;font-weight: bold&quot;&gt;&lt;b&gt;savedRecipes.ejs&lt;/b&gt;&lt;/div&gt;&lt;div style=&quot;font-weight: bold&quot;&gt;&lt;b&gt;&lt;br&gt;&lt;/b&gt;&lt;/div&gt;&lt;div&gt;&lt;span&gt;-&amp;gt; GET &quot;recipies/view&quot;&lt;/span&gt;&lt;/div&gt;&lt;div&gt;%&amp;gt; GET &quot;/logout&quot;&lt;span&gt;&lt;br&gt;&lt;/span&gt;&lt;/div&gt;" style="rounded=0;whiteSpace=wrap;html=1;align=left;" parent="1" vertex="1">
                    <mxGeometry x="1120" y="850" width="240" height="120" as="geometry"/>
                </mxCell>
                <mxCell id="113" value="Legend:&lt;br&gt;=&amp;gt; : redirect&lt;br&gt;%&amp;gt; : a href link&lt;br&gt;-&amp;gt; : form submit&lt;br&gt;}&amp;gt; : render" style="shape=note;size=20;whiteSpace=wrap;html=1;align=left;" parent="1" vertex="1">
                    <mxGeometry x="490" y="460" width="200" height="140" as="geometry"/>
                </mxCell>
                <mxCell id="136" style="edgeStyle=none;html=1;exitX=0.25;exitY=0;exitDx=0;exitDy=0;entryX=0.25;entryY=1;entryDx=0;entryDy=0;" parent="1" source="115" target="15" edge="1">
                    <mxGeometry relative="1" as="geometry"/>
                </mxCell>
                <mxCell id="141" style="edgeStyle=none;html=1;exitX=0.25;exitY=1;exitDx=0;exitDy=0;entryX=0.25;entryY=0;entryDx=0;entryDy=0;" parent="1" source="115" target="19" edge="1">
                    <mxGeometry relative="1" as="geometry"/>
                </mxCell>
                <mxCell id="115" value="Get &quot;/recipes/view&quot;&lt;br&gt;View Saved Recipes&lt;br&gt;&lt;b&gt;savedRecipes.ejs&lt;br&gt;&lt;/b&gt;&lt;br&gt;&lt;div&gt;%&amp;gt; &quot;/search/recipes/&quot;&lt;/div&gt;&lt;div&gt;%&amp;gt; &quot;/recipes/saved&quot;&lt;/div&gt;&lt;div&gt;%&amp;gt; GET &quot;/logout&quot;&lt;br&gt;&lt;/div&gt;" style="rounded=0;whiteSpace=wrap;html=1;align=left;" parent="1" vertex="1">
                    <mxGeometry x="1120" y="685.01" width="240" height="110" as="geometry"/>
                </mxCell>
                <mxCell id="150" style="edgeStyle=none;html=1;exitX=0.25;exitY=0;exitDx=0;exitDy=0;entryX=0.25;entryY=1;entryDx=0;entryDy=0;" parent="1" source="144" target="148" edge="1">
                    <mxGeometry relative="1" as="geometry"/>
                </mxCell>
                <mxCell id="144" value="GET &quot;/profile/edit&quot;&lt;br&gt;Profile Edit Page&lt;br&gt;&lt;b&gt;profileEdit.ejs&lt;br&gt;&lt;/b&gt;&lt;br&gt;&lt;div&gt;&lt;span&gt;-&amp;gt; POST &quot;/profile/edit&quot;&lt;/span&gt;&lt;/div&gt;&lt;div&gt;&lt;span&gt;%&amp;gt; GET &quot;/profile&quot;&lt;/span&gt;&lt;/div&gt;&lt;div&gt;&lt;span&gt;%&amp;gt; GET &quot;/logout&quot;&lt;/span&gt;&lt;/div&gt;" style="rounded=0;whiteSpace=wrap;html=1;gradientColor=none;align=left;" parent="1" vertex="1">
                    <mxGeometry x="795" y="410" width="300" height="130" as="geometry"/>
                </mxCell>
                <mxCell id="151" style="edgeStyle=none;html=1;exitX=0.75;exitY=1;exitDx=0;exitDy=0;entryX=0.75;entryY=0;entryDx=0;entryDy=0;" parent="1" source="148" target="144" edge="1">
                    <mxGeometry relative="1" as="geometry"/>
                </mxCell>
                <mxCell id="148" value="POST &quot;/profile/edit&quot;&lt;br&gt;Profile Edit (ROUTE ONLY)&lt;br&gt;&lt;br&gt;&lt;div&gt;&lt;span&gt;=&amp;gt; &quot;/profile/edit&quot;&lt;/span&gt;&lt;/div&gt;" style="rounded=0;whiteSpace=wrap;html=1;gradientColor=none;align=left;" parent="1" vertex="1">
                    <mxGeometry x="810" y="290" width="270" height="90" as="geometry"/>
                </mxCell>
                <mxCell id="156" value="" style="endArrow=classic;html=1;exitX=1;exitY=0.25;exitDx=0;exitDy=0;entryX=0.815;entryY=0.015;entryDx=0;entryDy=0;entryPerimeter=0;" parent="1" source="5" target="5" edge="1">
                    <mxGeometry width="50" height="50" relative="1" as="geometry">
                        <mxPoint x="700" y="710.01" as="sourcePoint"/>
                        <mxPoint x="750" y="660.01" as="targetPoint"/>
                        <Array as="points">
                            <mxPoint x="720" y="709"/>
                            <mxPoint x="720" y="650"/>
                            <mxPoint x="720" y="640"/>
                            <mxPoint x="640" y="640"/>
                        </Array>
                    </mxGeometry>
                </mxCell>
            </root>
        </mxGraphModel>
    </diagram>
    <diagram id="jPyyAmvr9jXWo_SONWo_" name="MVP Table Relations Map">
        <mxGraphModel dx="597" dy="-748" grid="1" gridSize="10" guides="1" tooltips="1" connect="1" arrows="1" fold="1" page="1" pageScale="1" pageWidth="850" pageHeight="1100" math="0" shadow="0">
            <root>
                <mxCell id="jBtd-i34otjGaTKZJxUd-0"/>
                <mxCell id="jBtd-i34otjGaTKZJxUd-1" parent="jBtd-i34otjGaTKZJxUd-0"/>
                <mxCell id="jBtd-i34otjGaTKZJxUd-2" value="user(s)" style="shape=table;startSize=30;container=1;collapsible=0;childLayout=tableLayout;fixedRows=1;rowLines=0;fontStyle=1;align=center;pointerEvents=1;" parent="jBtd-i34otjGaTKZJxUd-1" vertex="1">
                    <mxGeometry x="45" y="1650" width="110" height="150" as="geometry"/>
                </mxCell>
                <mxCell id="jBtd-i34otjGaTKZJxUd-3" value="" style="shape=partialRectangle;html=1;whiteSpace=wrap;collapsible=0;dropTarget=0;pointerEvents=1;fillColor=none;top=0;left=0;bottom=1;right=0;points=[[0,0.5],[1,0.5]];portConstraint=eastwest;" parent="jBtd-i34otjGaTKZJxUd-2" vertex="1">
                    <mxGeometry y="30" width="110" height="30" as="geometry"/>
                </mxCell>
                <mxCell id="jBtd-i34otjGaTKZJxUd-4" value="PK" style="shape=partialRectangle;html=1;whiteSpace=wrap;connectable=0;fillColor=none;top=0;left=0;bottom=0;right=0;overflow=hidden;pointerEvents=1;" parent="jBtd-i34otjGaTKZJxUd-3" vertex="1">
                    <mxGeometry width="24" height="30" as="geometry">
                        <mxRectangle width="24" height="30" as="alternateBounds"/>
                    </mxGeometry>
                </mxCell>
                <mxCell id="jBtd-i34otjGaTKZJxUd-5" value="id" style="shape=partialRectangle;html=1;whiteSpace=wrap;connectable=0;fillColor=none;top=0;left=0;bottom=0;right=0;align=left;spacingLeft=6;overflow=hidden;pointerEvents=1;" parent="jBtd-i34otjGaTKZJxUd-3" vertex="1">
                    <mxGeometry x="24" width="86" height="30" as="geometry">
                        <mxRectangle width="86" height="30" as="alternateBounds"/>
                    </mxGeometry>
                </mxCell>
                <mxCell id="jBtd-i34otjGaTKZJxUd-6" value="" style="shape=partialRectangle;html=1;whiteSpace=wrap;collapsible=0;dropTarget=0;pointerEvents=1;fillColor=none;top=0;left=0;bottom=0;right=0;points=[[0,0.5],[1,0.5]];portConstraint=eastwest;" parent="jBtd-i34otjGaTKZJxUd-2" vertex="1">
                    <mxGeometry y="60" width="110" height="30" as="geometry"/>
                </mxCell>
                <mxCell id="jBtd-i34otjGaTKZJxUd-7" value="string" style="shape=partialRectangle;html=1;whiteSpace=wrap;connectable=0;fillColor=none;top=0;left=0;bottom=0;right=0;overflow=hidden;pointerEvents=1;" parent="jBtd-i34otjGaTKZJxUd-6" vertex="1">
                    <mxGeometry width="24" height="30" as="geometry">
                        <mxRectangle width="24" height="30" as="alternateBounds"/>
                    </mxGeometry>
                </mxCell>
                <mxCell id="jBtd-i34otjGaTKZJxUd-8" value="email" style="shape=partialRectangle;html=1;whiteSpace=wrap;connectable=0;fillColor=none;top=0;left=0;bottom=0;right=0;align=left;spacingLeft=6;overflow=hidden;pointerEvents=1;" parent="jBtd-i34otjGaTKZJxUd-6" vertex="1">
                    <mxGeometry x="24" width="86" height="30" as="geometry">
                        <mxRectangle width="86" height="30" as="alternateBounds"/>
                    </mxGeometry>
                </mxCell>
                <mxCell id="jBtd-i34otjGaTKZJxUd-9" value="" style="shape=partialRectangle;html=1;whiteSpace=wrap;collapsible=0;dropTarget=0;pointerEvents=1;fillColor=none;top=0;left=0;bottom=0;right=0;points=[[0,0.5],[1,0.5]];portConstraint=eastwest;" parent="jBtd-i34otjGaTKZJxUd-2" vertex="1">
                    <mxGeometry y="90" width="110" height="30" as="geometry"/>
                </mxCell>
                <mxCell id="jBtd-i34otjGaTKZJxUd-10" value="string" style="shape=partialRectangle;html=1;whiteSpace=wrap;connectable=0;fillColor=none;top=0;left=0;bottom=0;right=0;overflow=hidden;pointerEvents=1;" parent="jBtd-i34otjGaTKZJxUd-9" vertex="1">
                    <mxGeometry width="24" height="30" as="geometry">
                        <mxRectangle width="24" height="30" as="alternateBounds"/>
                    </mxGeometry>
                </mxCell>
                <mxCell id="jBtd-i34otjGaTKZJxUd-11" value="password" style="shape=partialRectangle;html=1;whiteSpace=wrap;connectable=0;fillColor=none;top=0;left=0;bottom=0;right=0;align=left;spacingLeft=6;overflow=hidden;pointerEvents=1;" parent="jBtd-i34otjGaTKZJxUd-9" vertex="1">
                    <mxGeometry x="24" width="86" height="30" as="geometry">
                        <mxRectangle width="86" height="30" as="alternateBounds"/>
                    </mxGeometry>
                </mxCell>
                <mxCell id="jBtd-i34otjGaTKZJxUd-12" value="savedrecipe(s)" style="shape=table;startSize=30;container=1;collapsible=0;childLayout=tableLayout;fixedRows=1;rowLines=0;fontStyle=1;align=center;pointerEvents=1;" parent="jBtd-i34otjGaTKZJxUd-1" vertex="1">
                    <mxGeometry x="185" y="1650" width="120" height="220" as="geometry"/>
                </mxCell>
                <mxCell id="jBtd-i34otjGaTKZJxUd-13" value="" style="shape=partialRectangle;html=1;whiteSpace=wrap;collapsible=0;dropTarget=0;pointerEvents=1;fillColor=none;top=0;left=0;bottom=1;right=0;points=[[0,0.5],[1,0.5]];portConstraint=eastwest;" parent="jBtd-i34otjGaTKZJxUd-12" vertex="1">
                    <mxGeometry y="30" width="120" height="30" as="geometry"/>
                </mxCell>
                <mxCell id="jBtd-i34otjGaTKZJxUd-14" value="PK" style="shape=partialRectangle;html=1;whiteSpace=wrap;connectable=0;fillColor=none;top=0;left=0;bottom=0;right=0;overflow=hidden;pointerEvents=1;" parent="jBtd-i34otjGaTKZJxUd-13" vertex="1">
                    <mxGeometry width="27" height="30" as="geometry">
                        <mxRectangle width="27" height="30" as="alternateBounds"/>
                    </mxGeometry>
                </mxCell>
                <mxCell id="jBtd-i34otjGaTKZJxUd-15" value="id" style="shape=partialRectangle;html=1;whiteSpace=wrap;connectable=0;fillColor=none;top=0;left=0;bottom=0;right=0;align=left;spacingLeft=6;overflow=hidden;pointerEvents=1;" parent="jBtd-i34otjGaTKZJxUd-13" vertex="1">
                    <mxGeometry x="27" width="93" height="30" as="geometry">
                        <mxRectangle width="93" height="30" as="alternateBounds"/>
                    </mxGeometry>
                </mxCell>
                <mxCell id="jBtd-i34otjGaTKZJxUd-16" value="" style="shape=partialRectangle;html=1;whiteSpace=wrap;collapsible=0;dropTarget=0;pointerEvents=1;fillColor=none;top=0;left=0;bottom=0;right=0;points=[[0,0.5],[1,0.5]];portConstraint=eastwest;" parent="jBtd-i34otjGaTKZJxUd-12" vertex="1">
                    <mxGeometry y="60" width="120" height="30" as="geometry"/>
                </mxCell>
                <mxCell id="jBtd-i34otjGaTKZJxUd-17" value="string" style="shape=partialRectangle;html=1;whiteSpace=wrap;connectable=0;fillColor=none;top=0;left=0;bottom=0;right=0;overflow=hidden;pointerEvents=1;" parent="jBtd-i34otjGaTKZJxUd-16" vertex="1">
                    <mxGeometry width="27" height="30" as="geometry">
                        <mxRectangle width="27" height="30" as="alternateBounds"/>
                    </mxGeometry>
                </mxCell>
                <mxCell id="jBtd-i34otjGaTKZJxUd-18" value="name" style="shape=partialRectangle;html=1;whiteSpace=wrap;connectable=0;fillColor=none;top=0;left=0;bottom=0;right=0;align=left;spacingLeft=6;overflow=hidden;pointerEvents=1;" parent="jBtd-i34otjGaTKZJxUd-16" vertex="1">
                    <mxGeometry x="27" width="93" height="30" as="geometry">
                        <mxRectangle width="93" height="30" as="alternateBounds"/>
                    </mxGeometry>
                </mxCell>
                <mxCell id="jBtd-i34otjGaTKZJxUd-19" value="" style="shape=partialRectangle;html=1;whiteSpace=wrap;collapsible=0;dropTarget=0;pointerEvents=1;fillColor=none;top=0;left=0;bottom=0;right=0;points=[[0,0.5],[1,0.5]];portConstraint=eastwest;" parent="jBtd-i34otjGaTKZJxUd-12" vertex="1">
                    <mxGeometry y="90" width="120" height="30" as="geometry"/>
                </mxCell>
                <mxCell id="jBtd-i34otjGaTKZJxUd-20" value="float?" style="shape=partialRectangle;html=1;whiteSpace=wrap;connectable=0;fillColor=none;top=0;left=0;bottom=0;right=0;overflow=hidden;pointerEvents=1;" parent="jBtd-i34otjGaTKZJxUd-19" vertex="1">
                    <mxGeometry width="27" height="30" as="geometry">
                        <mxRectangle width="27" height="30" as="alternateBounds"/>
                    </mxGeometry>
                </mxCell>
                <mxCell id="jBtd-i34otjGaTKZJxUd-21" value="difficulty?" style="shape=partialRectangle;html=1;whiteSpace=wrap;connectable=0;fillColor=none;top=0;left=0;bottom=0;right=0;align=left;spacingLeft=6;overflow=hidden;pointerEvents=1;" parent="jBtd-i34otjGaTKZJxUd-19" vertex="1">
                    <mxGeometry x="27" width="93" height="30" as="geometry">
                        <mxRectangle width="93" height="30" as="alternateBounds"/>
                    </mxGeometry>
                </mxCell>
                <mxCell id="jBtd-i34otjGaTKZJxUd-22" value="" style="shape=partialRectangle;html=1;whiteSpace=wrap;collapsible=0;dropTarget=0;pointerEvents=1;fillColor=none;top=0;left=0;bottom=0;right=0;points=[[0,0.5],[1,0.5]];portConstraint=eastwest;" parent="jBtd-i34otjGaTKZJxUd-12" vertex="1">
                    <mxGeometry y="120" width="120" height="30" as="geometry"/>
                </mxCell>
                <mxCell id="jBtd-i34otjGaTKZJxUd-23" value="text" style="shape=partialRectangle;html=1;whiteSpace=wrap;connectable=0;fillColor=none;top=0;left=0;bottom=0;right=0;overflow=hidden;pointerEvents=1;" parent="jBtd-i34otjGaTKZJxUd-22" vertex="1">
                    <mxGeometry width="27" height="30" as="geometry">
                        <mxRectangle width="27" height="30" as="alternateBounds"/>
                    </mxGeometry>
                </mxCell>
                <mxCell id="jBtd-i34otjGaTKZJxUd-24" value="instructions" style="shape=partialRectangle;html=1;whiteSpace=wrap;connectable=0;fillColor=none;top=0;left=0;bottom=0;right=0;align=left;spacingLeft=6;overflow=hidden;pointerEvents=1;" parent="jBtd-i34otjGaTKZJxUd-22" vertex="1">
                    <mxGeometry x="27" width="93" height="30" as="geometry">
                        <mxRectangle width="93" height="30" as="alternateBounds"/>
                    </mxGeometry>
                </mxCell>
                <mxCell id="jBtd-i34otjGaTKZJxUd-25" value="" style="shape=partialRectangle;html=1;whiteSpace=wrap;collapsible=0;dropTarget=0;pointerEvents=1;fillColor=none;top=0;left=0;bottom=0;right=0;points=[[0,0.5],[1,0.5]];portConstraint=eastwest;" parent="jBtd-i34otjGaTKZJxUd-12" vertex="1">
                    <mxGeometry y="150" width="120" height="30" as="geometry"/>
                </mxCell>
                <mxCell id="jBtd-i34otjGaTKZJxUd-26" value="float" style="shape=partialRectangle;html=1;whiteSpace=wrap;connectable=0;fillColor=none;top=0;left=0;bottom=0;right=0;overflow=hidden;pointerEvents=1;" parent="jBtd-i34otjGaTKZJxUd-25" vertex="1">
                    <mxGeometry width="27" height="30" as="geometry">
                        <mxRectangle width="27" height="30" as="alternateBounds"/>
                    </mxGeometry>
                </mxCell>
                <mxCell id="jBtd-i34otjGaTKZJxUd-27" value="rating" style="shape=partialRectangle;html=1;whiteSpace=wrap;connectable=0;fillColor=none;top=0;left=0;bottom=0;right=0;align=left;spacingLeft=6;overflow=hidden;pointerEvents=1;" parent="jBtd-i34otjGaTKZJxUd-25" vertex="1">
                    <mxGeometry x="27" width="93" height="30" as="geometry">
                        <mxRectangle width="93" height="30" as="alternateBounds"/>
                    </mxGeometry>
                </mxCell>
                <mxCell id="jBtd-i34otjGaTKZJxUd-28" style="shape=partialRectangle;html=1;whiteSpace=wrap;collapsible=0;dropTarget=0;pointerEvents=1;fillColor=none;top=0;left=0;bottom=0;right=0;points=[[0,0.5],[1,0.5]];portConstraint=eastwest;" parent="jBtd-i34otjGaTKZJxUd-12" vertex="1">
                    <mxGeometry y="180" width="120" height="30" as="geometry"/>
                </mxCell>
                <mxCell id="jBtd-i34otjGaTKZJxUd-29" value="string" style="shape=partialRectangle;html=1;whiteSpace=wrap;connectable=0;fillColor=none;top=0;left=0;bottom=0;right=0;overflow=hidden;pointerEvents=1;" parent="jBtd-i34otjGaTKZJxUd-28" vertex="1">
                    <mxGeometry width="27" height="30" as="geometry">
                        <mxRectangle width="27" height="30" as="alternateBounds"/>
                    </mxGeometry>
                </mxCell>
                <mxCell id="jBtd-i34otjGaTKZJxUd-30" value="author" style="shape=partialRectangle;html=1;whiteSpace=wrap;connectable=0;fillColor=none;top=0;left=0;bottom=0;right=0;align=left;spacingLeft=6;overflow=hidden;pointerEvents=1;" parent="jBtd-i34otjGaTKZJxUd-28" vertex="1">
                    <mxGeometry x="27" width="93" height="30" as="geometry">
                        <mxRectangle width="93" height="30" as="alternateBounds"/>
                    </mxGeometry>
                </mxCell>
                <mxCell id="jBtd-i34otjGaTKZJxUd-31" value="recipeIngredient" style="shape=table;startSize=30;container=1;collapsible=0;childLayout=tableLayout;fixedRows=1;rowLines=0;fontStyle=1;align=center;pointerEvents=1;" parent="jBtd-i34otjGaTKZJxUd-1" vertex="1">
                    <mxGeometry x="375" y="1510" width="120" height="180" as="geometry"/>
                </mxCell>
                <mxCell id="jBtd-i34otjGaTKZJxUd-32" value="" style="shape=partialRectangle;html=1;whiteSpace=wrap;collapsible=0;dropTarget=0;pointerEvents=1;fillColor=none;top=0;left=0;bottom=1;right=0;points=[[0,0.5],[1,0.5]];portConstraint=eastwest;" parent="jBtd-i34otjGaTKZJxUd-31" vertex="1">
                    <mxGeometry y="30" width="120" height="30" as="geometry"/>
                </mxCell>
                <mxCell id="jBtd-i34otjGaTKZJxUd-33" value="PK" style="shape=partialRectangle;html=1;whiteSpace=wrap;connectable=0;fillColor=none;top=0;left=0;bottom=0;right=0;overflow=hidden;pointerEvents=1;" parent="jBtd-i34otjGaTKZJxUd-32" vertex="1">
                    <mxGeometry width="27" height="30" as="geometry">
                        <mxRectangle width="27" height="30" as="alternateBounds"/>
                    </mxGeometry>
                </mxCell>
                <mxCell id="jBtd-i34otjGaTKZJxUd-34" value="id" style="shape=partialRectangle;html=1;whiteSpace=wrap;connectable=0;fillColor=none;top=0;left=0;bottom=0;right=0;align=left;spacingLeft=6;overflow=hidden;pointerEvents=1;" parent="jBtd-i34otjGaTKZJxUd-32" vertex="1">
                    <mxGeometry x="27" width="93" height="30" as="geometry">
                        <mxRectangle width="93" height="30" as="alternateBounds"/>
                    </mxGeometry>
                </mxCell>
                <mxCell id="jBtd-i34otjGaTKZJxUd-35" value="" style="shape=partialRectangle;html=1;whiteSpace=wrap;collapsible=0;dropTarget=0;pointerEvents=1;fillColor=none;top=0;left=0;bottom=0;right=0;points=[[0,0.5],[1,0.5]];portConstraint=eastwest;" parent="jBtd-i34otjGaTKZJxUd-31" vertex="1">
                    <mxGeometry y="60" width="120" height="30" as="geometry"/>
                </mxCell>
                <mxCell id="jBtd-i34otjGaTKZJxUd-36" value="integer" style="shape=partialRectangle;html=1;whiteSpace=wrap;connectable=0;fillColor=none;top=0;left=0;bottom=0;right=0;overflow=hidden;pointerEvents=1;" parent="jBtd-i34otjGaTKZJxUd-35" vertex="1">
                    <mxGeometry width="27" height="30" as="geometry">
                        <mxRectangle width="27" height="30" as="alternateBounds"/>
                    </mxGeometry>
                </mxCell>
                <mxCell id="jBtd-i34otjGaTKZJxUd-37" value="recipeId" style="shape=partialRectangle;html=1;whiteSpace=wrap;connectable=0;fillColor=none;top=0;left=0;bottom=0;right=0;align=left;spacingLeft=6;overflow=hidden;pointerEvents=1;" parent="jBtd-i34otjGaTKZJxUd-35" vertex="1">
                    <mxGeometry x="27" width="93" height="30" as="geometry">
                        <mxRectangle width="93" height="30" as="alternateBounds"/>
                    </mxGeometry>
                </mxCell>
                <mxCell id="jBtd-i34otjGaTKZJxUd-38" value="" style="shape=partialRectangle;html=1;whiteSpace=wrap;collapsible=0;dropTarget=0;pointerEvents=1;fillColor=none;top=0;left=0;bottom=0;right=0;points=[[0,0.5],[1,0.5]];portConstraint=eastwest;" parent="jBtd-i34otjGaTKZJxUd-31" vertex="1">
                    <mxGeometry y="90" width="120" height="55" as="geometry"/>
                </mxCell>
                <mxCell id="jBtd-i34otjGaTKZJxUd-39" value="integer" style="shape=partialRectangle;html=1;whiteSpace=wrap;connectable=0;fillColor=none;top=0;left=0;bottom=0;right=0;overflow=hidden;pointerEvents=1;" parent="jBtd-i34otjGaTKZJxUd-38" vertex="1">
                    <mxGeometry width="27" height="55" as="geometry">
                        <mxRectangle width="27" height="55" as="alternateBounds"/>
                    </mxGeometry>
                </mxCell>
                <mxCell id="jBtd-i34otjGaTKZJxUd-40" value="ingredientsId" style="shape=partialRectangle;html=1;whiteSpace=wrap;connectable=0;fillColor=none;top=0;left=0;bottom=0;right=0;align=left;spacingLeft=6;overflow=hidden;pointerEvents=1;" parent="jBtd-i34otjGaTKZJxUd-38" vertex="1">
                    <mxGeometry x="27" width="93" height="55" as="geometry">
                        <mxRectangle width="93" height="55" as="alternateBounds"/>
                    </mxGeometry>
                </mxCell>
                <mxCell id="jBtd-i34otjGaTKZJxUd-41" value="ingredient(s)" style="shape=table;startSize=20;container=1;collapsible=0;childLayout=tableLayout;fixedRows=1;rowLines=0;fontStyle=1;align=center;pointerEvents=1;" parent="jBtd-i34otjGaTKZJxUd-1" vertex="1">
                    <mxGeometry x="545" y="1630" width="130" height="220" as="geometry"/>
                </mxCell>
                <mxCell id="jBtd-i34otjGaTKZJxUd-42" value="" style="shape=partialRectangle;html=1;whiteSpace=wrap;collapsible=0;dropTarget=0;pointerEvents=1;fillColor=none;top=0;left=0;bottom=1;right=0;points=[[0,0.5],[1,0.5]];portConstraint=eastwest;" parent="jBtd-i34otjGaTKZJxUd-41" vertex="1">
                    <mxGeometry y="20" width="130" height="30" as="geometry"/>
                </mxCell>
                <mxCell id="jBtd-i34otjGaTKZJxUd-43" value="PK" style="shape=partialRectangle;html=1;whiteSpace=wrap;connectable=0;fillColor=none;top=0;left=0;bottom=0;right=0;overflow=hidden;pointerEvents=1;" parent="jBtd-i34otjGaTKZJxUd-42" vertex="1">
                    <mxGeometry width="29" height="30" as="geometry">
                        <mxRectangle width="29" height="30" as="alternateBounds"/>
                    </mxGeometry>
                </mxCell>
                <mxCell id="jBtd-i34otjGaTKZJxUd-44" value="id" style="shape=partialRectangle;html=1;whiteSpace=wrap;connectable=0;fillColor=none;top=0;left=0;bottom=0;right=0;align=left;spacingLeft=6;overflow=hidden;pointerEvents=1;" parent="jBtd-i34otjGaTKZJxUd-42" vertex="1">
                    <mxGeometry x="29" width="101" height="30" as="geometry">
                        <mxRectangle width="101" height="30" as="alternateBounds"/>
                    </mxGeometry>
                </mxCell>
                <mxCell id="jBtd-i34otjGaTKZJxUd-45" value="" style="shape=partialRectangle;html=1;whiteSpace=wrap;collapsible=0;dropTarget=0;pointerEvents=1;fillColor=none;top=0;left=0;bottom=0;right=0;points=[[0,0.5],[1,0.5]];portConstraint=eastwest;" parent="jBtd-i34otjGaTKZJxUd-41" vertex="1">
                    <mxGeometry y="50" width="130" height="30" as="geometry"/>
                </mxCell>
                <mxCell id="jBtd-i34otjGaTKZJxUd-46" value="string" style="shape=partialRectangle;html=1;whiteSpace=wrap;connectable=0;fillColor=none;top=0;left=0;bottom=0;right=0;overflow=hidden;pointerEvents=1;" parent="jBtd-i34otjGaTKZJxUd-45" vertex="1">
                    <mxGeometry width="29" height="30" as="geometry">
                        <mxRectangle width="29" height="30" as="alternateBounds"/>
                    </mxGeometry>
                </mxCell>
                <mxCell id="jBtd-i34otjGaTKZJxUd-47" value="name" style="shape=partialRectangle;html=1;whiteSpace=wrap;connectable=0;fillColor=none;top=0;left=0;bottom=0;right=0;align=left;spacingLeft=6;overflow=hidden;pointerEvents=1;" parent="jBtd-i34otjGaTKZJxUd-45" vertex="1">
                    <mxGeometry x="29" width="101" height="30" as="geometry">
                        <mxRectangle width="101" height="30" as="alternateBounds"/>
                    </mxGeometry>
                </mxCell>
                <mxCell id="jBtd-i34otjGaTKZJxUd-48" value="" style="shape=partialRectangle;html=1;whiteSpace=wrap;collapsible=0;dropTarget=0;pointerEvents=1;fillColor=none;top=0;left=0;bottom=0;right=0;points=[[0,0.5],[1,0.5]];portConstraint=eastwest;" parent="jBtd-i34otjGaTKZJxUd-41" vertex="1">
                    <mxGeometry y="80" width="130" height="30" as="geometry"/>
                </mxCell>
                <mxCell id="jBtd-i34otjGaTKZJxUd-49" value="integer" style="shape=partialRectangle;html=1;whiteSpace=wrap;connectable=0;fillColor=none;top=0;left=0;bottom=0;right=0;overflow=hidden;pointerEvents=1;" parent="jBtd-i34otjGaTKZJxUd-48" vertex="1">
                    <mxGeometry width="29" height="30" as="geometry">
                        <mxRectangle width="29" height="30" as="alternateBounds"/>
                    </mxGeometry>
                </mxCell>
                <mxCell id="jBtd-i34otjGaTKZJxUd-50" value="protein" style="shape=partialRectangle;html=1;whiteSpace=wrap;connectable=0;fillColor=none;top=0;left=0;bottom=0;right=0;align=left;spacingLeft=6;overflow=hidden;pointerEvents=1;" parent="jBtd-i34otjGaTKZJxUd-48" vertex="1">
                    <mxGeometry x="29" width="101" height="30" as="geometry">
                        <mxRectangle width="101" height="30" as="alternateBounds"/>
                    </mxGeometry>
                </mxCell>
                <mxCell id="jBtd-i34otjGaTKZJxUd-51" style="shape=partialRectangle;html=1;whiteSpace=wrap;collapsible=0;dropTarget=0;pointerEvents=1;fillColor=none;top=0;left=0;bottom=0;right=0;points=[[0,0.5],[1,0.5]];portConstraint=eastwest;" parent="jBtd-i34otjGaTKZJxUd-41" vertex="1">
                    <mxGeometry y="110" width="130" height="30" as="geometry"/>
                </mxCell>
                <mxCell id="jBtd-i34otjGaTKZJxUd-52" value="integer" style="shape=partialRectangle;html=1;whiteSpace=wrap;connectable=0;fillColor=none;top=0;left=0;bottom=0;right=0;overflow=hidden;pointerEvents=1;" parent="jBtd-i34otjGaTKZJxUd-51" vertex="1">
                    <mxGeometry width="29" height="30" as="geometry">
                        <mxRectangle width="29" height="30" as="alternateBounds"/>
                    </mxGeometry>
                </mxCell>
                <mxCell id="jBtd-i34otjGaTKZJxUd-53" value="carb" style="shape=partialRectangle;html=1;whiteSpace=wrap;connectable=0;fillColor=none;top=0;left=0;bottom=0;right=0;align=left;spacingLeft=6;overflow=hidden;pointerEvents=1;" parent="jBtd-i34otjGaTKZJxUd-51" vertex="1">
                    <mxGeometry x="29" width="101" height="30" as="geometry">
                        <mxRectangle width="101" height="30" as="alternateBounds"/>
                    </mxGeometry>
                </mxCell>
                <mxCell id="jBtd-i34otjGaTKZJxUd-88" style="shape=partialRectangle;html=1;whiteSpace=wrap;collapsible=0;dropTarget=0;pointerEvents=1;fillColor=none;top=0;left=0;bottom=0;right=0;points=[[0,0.5],[1,0.5]];portConstraint=eastwest;" parent="jBtd-i34otjGaTKZJxUd-41" vertex="1">
                    <mxGeometry y="140" width="130" height="30" as="geometry"/>
                </mxCell>
                <mxCell id="jBtd-i34otjGaTKZJxUd-89" value="integer" style="shape=partialRectangle;html=1;whiteSpace=wrap;connectable=0;fillColor=none;top=0;left=0;bottom=0;right=0;overflow=hidden;pointerEvents=1;" parent="jBtd-i34otjGaTKZJxUd-88" vertex="1">
                    <mxGeometry width="29" height="30" as="geometry">
                        <mxRectangle width="29" height="30" as="alternateBounds"/>
                    </mxGeometry>
                </mxCell>
                <mxCell id="jBtd-i34otjGaTKZJxUd-90" value="calories" style="shape=partialRectangle;html=1;whiteSpace=wrap;connectable=0;fillColor=none;top=0;left=0;bottom=0;right=0;align=left;spacingLeft=6;overflow=hidden;pointerEvents=1;" parent="jBtd-i34otjGaTKZJxUd-88" vertex="1">
                    <mxGeometry x="29" width="101" height="30" as="geometry">
                        <mxRectangle width="101" height="30" as="alternateBounds"/>
                    </mxGeometry>
                </mxCell>
                <mxCell id="jBtd-i34otjGaTKZJxUd-54" style="shape=partialRectangle;html=1;whiteSpace=wrap;collapsible=0;dropTarget=0;pointerEvents=1;fillColor=none;top=0;left=0;bottom=0;right=0;points=[[0,0.5],[1,0.5]];portConstraint=eastwest;" parent="jBtd-i34otjGaTKZJxUd-41" vertex="1">
                    <mxGeometry y="170" width="130" height="30" as="geometry"/>
                </mxCell>
                <mxCell id="jBtd-i34otjGaTKZJxUd-55" value="integer" style="shape=partialRectangle;html=1;whiteSpace=wrap;connectable=0;fillColor=none;top=0;left=0;bottom=0;right=0;overflow=hidden;pointerEvents=1;" parent="jBtd-i34otjGaTKZJxUd-54" vertex="1">
                    <mxGeometry width="29" height="30" as="geometry">
                        <mxRectangle width="29" height="30" as="alternateBounds"/>
                    </mxGeometry>
                </mxCell>
                <mxCell id="jBtd-i34otjGaTKZJxUd-56" value="fat" style="shape=partialRectangle;html=1;whiteSpace=wrap;connectable=0;fillColor=none;top=0;left=0;bottom=0;right=0;align=left;spacingLeft=6;overflow=hidden;pointerEvents=1;" parent="jBtd-i34otjGaTKZJxUd-54" vertex="1">
                    <mxGeometry x="29" width="101" height="30" as="geometry">
                        <mxRectangle width="101" height="30" as="alternateBounds"/>
                    </mxGeometry>
                </mxCell>
                <mxCell id="jBtd-i34otjGaTKZJxUd-57" value="incat(s)" style="shape=table;startSize=30;container=1;collapsible=0;childLayout=tableLayout;fixedRows=1;rowLines=0;fontStyle=1;align=center;pointerEvents=1;" parent="jBtd-i34otjGaTKZJxUd-1" vertex="1">
                    <mxGeometry x="715" y="1500" width="90" height="110" as="geometry"/>
                </mxCell>
                <mxCell id="jBtd-i34otjGaTKZJxUd-58" value="" style="shape=partialRectangle;html=1;whiteSpace=wrap;collapsible=0;dropTarget=0;pointerEvents=1;fillColor=none;top=0;left=0;bottom=1;right=0;points=[[0,0.5],[1,0.5]];portConstraint=eastwest;" parent="jBtd-i34otjGaTKZJxUd-57" vertex="1">
                    <mxGeometry y="30" width="90" height="30" as="geometry"/>
                </mxCell>
                <mxCell id="jBtd-i34otjGaTKZJxUd-59" value="PK" style="shape=partialRectangle;html=1;whiteSpace=wrap;connectable=0;fillColor=none;top=0;left=0;bottom=0;right=0;overflow=hidden;pointerEvents=1;" parent="jBtd-i34otjGaTKZJxUd-58" vertex="1">
                    <mxGeometry width="20" height="30" as="geometry">
                        <mxRectangle width="20" height="30" as="alternateBounds"/>
                    </mxGeometry>
                </mxCell>
                <mxCell id="jBtd-i34otjGaTKZJxUd-60" value="id" style="shape=partialRectangle;html=1;whiteSpace=wrap;connectable=0;fillColor=none;top=0;left=0;bottom=0;right=0;align=left;spacingLeft=6;overflow=hidden;pointerEvents=1;" parent="jBtd-i34otjGaTKZJxUd-58" vertex="1">
                    <mxGeometry x="20" width="70" height="30" as="geometry">
                        <mxRectangle width="70" height="30" as="alternateBounds"/>
                    </mxGeometry>
                </mxCell>
                <mxCell id="jBtd-i34otjGaTKZJxUd-61" value="" style="shape=partialRectangle;html=1;whiteSpace=wrap;collapsible=0;dropTarget=0;pointerEvents=1;fillColor=none;top=0;left=0;bottom=0;right=0;points=[[0,0.5],[1,0.5]];portConstraint=eastwest;" parent="jBtd-i34otjGaTKZJxUd-57" vertex="1">
                    <mxGeometry y="60" width="90" height="40" as="geometry"/>
                </mxCell>
                <mxCell id="jBtd-i34otjGaTKZJxUd-62" value="string" style="shape=partialRectangle;html=1;whiteSpace=wrap;connectable=0;fillColor=none;top=0;left=0;bottom=0;right=0;overflow=hidden;pointerEvents=1;" parent="jBtd-i34otjGaTKZJxUd-61" vertex="1">
                    <mxGeometry width="20" height="40" as="geometry">
                        <mxRectangle width="20" height="40" as="alternateBounds"/>
                    </mxGeometry>
                </mxCell>
                <mxCell id="jBtd-i34otjGaTKZJxUd-63" value="type" style="shape=partialRectangle;html=1;whiteSpace=wrap;connectable=0;fillColor=none;top=0;left=0;bottom=0;right=0;align=left;spacingLeft=6;overflow=hidden;pointerEvents=1;" parent="jBtd-i34otjGaTKZJxUd-61" vertex="1">
                    <mxGeometry x="20" width="70" height="40" as="geometry">
                        <mxRectangle width="70" height="40" as="alternateBounds"/>
                    </mxGeometry>
                </mxCell>
                <mxCell id="jBtd-i34otjGaTKZJxUd-64" value="Cuisine(s)" style="shape=table;startSize=30;container=1;collapsible=0;childLayout=tableLayout;fixedRows=1;rowLines=0;fontStyle=1;align=center;pointerEvents=1;" parent="jBtd-i34otjGaTKZJxUd-1" vertex="1">
                    <mxGeometry x="345" y="1790" width="115" height="100" as="geometry"/>
                </mxCell>
                <mxCell id="jBtd-i34otjGaTKZJxUd-65" value="" style="shape=partialRectangle;html=1;whiteSpace=wrap;collapsible=0;dropTarget=0;pointerEvents=1;fillColor=none;top=0;left=0;bottom=1;right=0;points=[[0,0.5],[1,0.5]];portConstraint=eastwest;" parent="jBtd-i34otjGaTKZJxUd-64" vertex="1">
                    <mxGeometry y="30" width="115" height="30" as="geometry"/>
                </mxCell>
                <mxCell id="jBtd-i34otjGaTKZJxUd-66" value="PK" style="shape=partialRectangle;html=1;whiteSpace=wrap;connectable=0;fillColor=none;top=0;left=0;bottom=0;right=0;overflow=hidden;pointerEvents=1;" parent="jBtd-i34otjGaTKZJxUd-65" vertex="1">
                    <mxGeometry width="26" height="30" as="geometry">
                        <mxRectangle width="26" height="30" as="alternateBounds"/>
                    </mxGeometry>
                </mxCell>
                <mxCell id="jBtd-i34otjGaTKZJxUd-67" value="id" style="shape=partialRectangle;html=1;whiteSpace=wrap;connectable=0;fillColor=none;top=0;left=0;bottom=0;right=0;align=left;spacingLeft=6;overflow=hidden;pointerEvents=1;" parent="jBtd-i34otjGaTKZJxUd-65" vertex="1">
                    <mxGeometry x="26" width="89" height="30" as="geometry">
                        <mxRectangle width="89" height="30" as="alternateBounds"/>
                    </mxGeometry>
                </mxCell>
                <mxCell id="jBtd-i34otjGaTKZJxUd-68" value="" style="shape=partialRectangle;html=1;whiteSpace=wrap;collapsible=0;dropTarget=0;pointerEvents=1;fillColor=none;top=0;left=0;bottom=0;right=0;points=[[0,0.5],[1,0.5]];portConstraint=eastwest;" parent="jBtd-i34otjGaTKZJxUd-64" vertex="1">
                    <mxGeometry y="60" width="115" height="30" as="geometry"/>
                </mxCell>
                <mxCell id="jBtd-i34otjGaTKZJxUd-69" value="string" style="shape=partialRectangle;html=1;whiteSpace=wrap;connectable=0;fillColor=none;top=0;left=0;bottom=0;right=0;overflow=hidden;pointerEvents=1;" parent="jBtd-i34otjGaTKZJxUd-68" vertex="1">
                    <mxGeometry width="26" height="30" as="geometry">
                        <mxRectangle width="26" height="30" as="alternateBounds"/>
                    </mxGeometry>
                </mxCell>
                <mxCell id="jBtd-i34otjGaTKZJxUd-70" value="type" style="shape=partialRectangle;html=1;whiteSpace=wrap;connectable=0;fillColor=none;top=0;left=0;bottom=0;right=0;align=left;spacingLeft=6;overflow=hidden;pointerEvents=1;" parent="jBtd-i34otjGaTKZJxUd-68" vertex="1">
                    <mxGeometry x="26" width="89" height="30" as="geometry">
                        <mxRectangle width="89" height="30" as="alternateBounds"/>
                    </mxGeometry>
                </mxCell>
                <mxCell id="jBtd-i34otjGaTKZJxUd-71" value="quantity" style="shape=table;startSize=30;container=1;collapsible=0;childLayout=tableLayout;fixedRows=1;rowLines=0;fontStyle=1;align=center;pointerEvents=1;" parent="jBtd-i34otjGaTKZJxUd-1" vertex="1">
                    <mxGeometry x="585" y="1330" width="100" height="150" as="geometry"/>
                </mxCell>
                <mxCell id="jBtd-i34otjGaTKZJxUd-72" value="" style="shape=partialRectangle;html=1;whiteSpace=wrap;collapsible=0;dropTarget=0;pointerEvents=1;fillColor=none;top=0;left=0;bottom=1;right=0;points=[[0,0.5],[1,0.5]];portConstraint=eastwest;" parent="jBtd-i34otjGaTKZJxUd-71" vertex="1">
                    <mxGeometry y="30" width="100" height="30" as="geometry"/>
                </mxCell>
                <mxCell id="jBtd-i34otjGaTKZJxUd-73" value="PK" style="shape=partialRectangle;html=1;whiteSpace=wrap;connectable=0;fillColor=none;top=0;left=0;bottom=0;right=0;overflow=hidden;pointerEvents=1;" parent="jBtd-i34otjGaTKZJxUd-72" vertex="1">
                    <mxGeometry width="22" height="30" as="geometry">
                        <mxRectangle width="22" height="30" as="alternateBounds"/>
                    </mxGeometry>
                </mxCell>
                <mxCell id="jBtd-i34otjGaTKZJxUd-74" value="id" style="shape=partialRectangle;html=1;whiteSpace=wrap;connectable=0;fillColor=none;top=0;left=0;bottom=0;right=0;align=left;spacingLeft=6;overflow=hidden;pointerEvents=1;" parent="jBtd-i34otjGaTKZJxUd-72" vertex="1">
                    <mxGeometry x="22" width="78" height="30" as="geometry">
                        <mxRectangle width="78" height="30" as="alternateBounds"/>
                    </mxGeometry>
                </mxCell>
                <mxCell id="jBtd-i34otjGaTKZJxUd-75" value="" style="shape=partialRectangle;html=1;whiteSpace=wrap;collapsible=0;dropTarget=0;pointerEvents=1;fillColor=none;top=0;left=0;bottom=0;right=0;points=[[0,0.5],[1,0.5]];portConstraint=eastwest;" parent="jBtd-i34otjGaTKZJxUd-71" vertex="1">
                    <mxGeometry y="60" width="100" height="30" as="geometry"/>
                </mxCell>
                <mxCell id="jBtd-i34otjGaTKZJxUd-76" value="float" style="shape=partialRectangle;html=1;whiteSpace=wrap;connectable=0;fillColor=none;top=0;left=0;bottom=0;right=0;overflow=hidden;pointerEvents=1;" parent="jBtd-i34otjGaTKZJxUd-75" vertex="1">
                    <mxGeometry width="22" height="30" as="geometry">
                        <mxRectangle width="22" height="30" as="alternateBounds"/>
                    </mxGeometry>
                </mxCell>
                <mxCell id="jBtd-i34otjGaTKZJxUd-77" value="quantity" style="shape=partialRectangle;html=1;whiteSpace=wrap;connectable=0;fillColor=none;top=0;left=0;bottom=0;right=0;align=left;spacingLeft=6;overflow=hidden;pointerEvents=1;" parent="jBtd-i34otjGaTKZJxUd-75" vertex="1">
                    <mxGeometry x="22" width="78" height="30" as="geometry">
                        <mxRectangle width="78" height="30" as="alternateBounds"/>
                    </mxGeometry>
                </mxCell>
                <mxCell id="jBtd-i34otjGaTKZJxUd-78" value="" style="shape=partialRectangle;html=1;whiteSpace=wrap;collapsible=0;dropTarget=0;pointerEvents=1;fillColor=none;top=0;left=0;bottom=0;right=0;points=[[0,0.5],[1,0.5]];portConstraint=eastwest;" parent="jBtd-i34otjGaTKZJxUd-71" vertex="1">
                    <mxGeometry y="90" width="100" height="30" as="geometry"/>
                </mxCell>
                <mxCell id="jBtd-i34otjGaTKZJxUd-79" value="string" style="shape=partialRectangle;html=1;whiteSpace=wrap;connectable=0;fillColor=none;top=0;left=0;bottom=0;right=0;overflow=hidden;pointerEvents=1;" parent="jBtd-i34otjGaTKZJxUd-78" vertex="1">
                    <mxGeometry width="22" height="30" as="geometry">
                        <mxRectangle width="22" height="30" as="alternateBounds"/>
                    </mxGeometry>
                </mxCell>
                <mxCell id="jBtd-i34otjGaTKZJxUd-80" value="uom" style="shape=partialRectangle;html=1;whiteSpace=wrap;connectable=0;fillColor=none;top=0;left=0;bottom=0;right=0;align=left;spacingLeft=6;overflow=hidden;pointerEvents=1;" parent="jBtd-i34otjGaTKZJxUd-78" vertex="1">
                    <mxGeometry x="22" width="78" height="30" as="geometry">
                        <mxRectangle width="78" height="30" as="alternateBounds"/>
                    </mxGeometry>
                </mxCell>
                <mxCell id="jBtd-i34otjGaTKZJxUd-81" value="" style="edgeStyle=elbowEdgeStyle;elbow=horizontal;endArrow=ERoneToMany;html=1;entryX=0;entryY=0.5;entryDx=0;entryDy=0;startArrow=ERone;startFill=0;endFill=0;" parent="jBtd-i34otjGaTKZJxUd-1" source="jBtd-i34otjGaTKZJxUd-3" target="jBtd-i34otjGaTKZJxUd-13" edge="1">
                    <mxGeometry width="50" height="50" relative="1" as="geometry">
                        <mxPoint x="335" y="1820" as="sourcePoint"/>
                        <mxPoint x="385" y="1770" as="targetPoint"/>
                    </mxGeometry>
                </mxCell>
                <mxCell id="jBtd-i34otjGaTKZJxUd-82" value="" style="edgeStyle=elbowEdgeStyle;elbow=horizontal;endArrow=ERoneToMany;html=1;startArrow=ERoneToMany;startFill=0;endFill=0;entryX=0;entryY=0.834;entryDx=0;entryDy=0;entryPerimeter=0;exitX=1;exitY=0.5;exitDx=0;exitDy=0;" parent="jBtd-i34otjGaTKZJxUd-1" source="jBtd-i34otjGaTKZJxUd-13" target="jBtd-i34otjGaTKZJxUd-32" edge="1">
                    <mxGeometry width="50" height="50" relative="1" as="geometry">
                        <mxPoint x="365" y="1695" as="sourcePoint"/>
                        <mxPoint x="445" y="1650" as="targetPoint"/>
                        <Array as="points">
                            <mxPoint x="345" y="1630"/>
                        </Array>
                    </mxGeometry>
                </mxCell>
                <mxCell id="jBtd-i34otjGaTKZJxUd-83" value="" style="edgeStyle=elbowEdgeStyle;elbow=horizontal;endArrow=ERoneToMany;html=1;startArrow=ERoneToMany;startFill=0;endFill=0;" parent="jBtd-i34otjGaTKZJxUd-1" source="jBtd-i34otjGaTKZJxUd-38" target="jBtd-i34otjGaTKZJxUd-42" edge="1">
                    <mxGeometry width="50" height="50" relative="1" as="geometry">
                        <mxPoint x="695" y="1840" as="sourcePoint"/>
                        <mxPoint x="735" y="1590" as="targetPoint"/>
                    </mxGeometry>
                </mxCell>
                <mxCell id="jBtd-i34otjGaTKZJxUd-84" value="" style="edgeStyle=elbowEdgeStyle;elbow=horizontal;endArrow=ERone;html=1;exitX=1;exitY=0.5;exitDx=0;exitDy=0;startArrow=ERone;startFill=0;endFill=0;" parent="jBtd-i34otjGaTKZJxUd-1" source="jBtd-i34otjGaTKZJxUd-42" target="jBtd-i34otjGaTKZJxUd-58" edge="1">
                    <mxGeometry width="50" height="50" relative="1" as="geometry">
                        <mxPoint x="985" y="1815" as="sourcePoint"/>
                        <mxPoint x="1105" y="1850" as="targetPoint"/>
                    </mxGeometry>
                </mxCell>
                <mxCell id="jBtd-i34otjGaTKZJxUd-85" value="" style="edgeStyle=elbowEdgeStyle;elbow=horizontal;endArrow=ERoneToMany;html=1;exitX=0.995;exitY=0.873;exitDx=0;exitDy=0;exitPerimeter=0;startArrow=ERoneToMany;startFill=0;endFill=0;" parent="jBtd-i34otjGaTKZJxUd-1" source="jBtd-i34otjGaTKZJxUd-13" target="jBtd-i34otjGaTKZJxUd-65" edge="1">
                    <mxGeometry width="50" height="50" relative="1" as="geometry">
                        <mxPoint x="385" y="1710" as="sourcePoint"/>
                        <mxPoint x="485" y="1860" as="targetPoint"/>
                        <Array as="points">
                            <mxPoint x="315" y="1770"/>
                        </Array>
                    </mxGeometry>
                </mxCell>
                <mxCell id="jBtd-i34otjGaTKZJxUd-86" value="" style="edgeStyle=elbowEdgeStyle;elbow=horizontal;endArrow=ERoneToMany;html=1;startArrow=ERone;startFill=0;endFill=0;entryX=-0.007;entryY=0.714;entryDx=0;entryDy=0;entryPerimeter=0;" parent="jBtd-i34otjGaTKZJxUd-1" source="jBtd-i34otjGaTKZJxUd-32" target="jBtd-i34otjGaTKZJxUd-72" edge="1">
                    <mxGeometry width="50" height="50" relative="1" as="geometry">
                        <mxPoint x="555" y="1370" as="sourcePoint"/>
                        <mxPoint x="765" y="1400" as="targetPoint"/>
                        <Array as="points">
                            <mxPoint x="345" y="1440"/>
                        </Array>
                    </mxGeometry>
                </mxCell>
                <mxCell id="jBtd-i34otjGaTKZJxUd-87" value="" style="edgeStyle=elbowEdgeStyle;elbow=horizontal;endArrow=ERoneToMany;html=1;exitX=0.995;exitY=0.178;exitDx=0;exitDy=0;exitPerimeter=0;startArrow=ERoneToMany;startFill=0;endFill=0;entryX=0.004;entryY=0.187;entryDx=0;entryDy=0;entryPerimeter=0;" parent="jBtd-i34otjGaTKZJxUd-1" source="jBtd-i34otjGaTKZJxUd-13" target="jBtd-i34otjGaTKZJxUd-72" edge="1">
                    <mxGeometry width="50" height="50" relative="1" as="geometry">
                        <mxPoint x="395" y="1600" as="sourcePoint"/>
                        <mxPoint x="755" y="1360" as="targetPoint"/>
                        <Array as="points">
                            <mxPoint x="325" y="1540"/>
                            <mxPoint x="425" y="1480"/>
                        </Array>
                    </mxGeometry>
                </mxCell>
            </root>
        </mxGraphModel>
    </diagram>
</mxfile>